<?xml version="1.0" encoding="UTF-8"?>
<svg xmlns="http://www.w3.org/2000/svg" width="39.239" height="38.606" viewBox="0 0 39.239 38.606">
   <defs>
   </defs>
   <g transform="translate(-59 -363)">
      <g transform="translate(-9 7)">
         <path fill="#dfc30a" d="M-1657.062,341s-4.423,4.075-13.162,4.171c-6.571-.464-6.777,0-6.777,0l4.28-4.171Z" transform="translate(1764.301 37.619)" />
         <g transform="translate(68 356)">
            <g transform="translate(0 0)">
               <path fill="#00a4f6" opacity="0.64" d="M162.809,15.04H152.05a4.43,4.43,0,1,1,.722-8.8,6.007,6.007,0,0,1,11.26.113,4.43,4.43,0,0,1-1.222,8.688Z" transform="translate(-128 -2.382)" />
               <path fill="#333" d="M40.245,113.9a16.1,16.1,0,0,0-7.166-1.692H25.1l-7.173-5.063H11.767l5.063,5.063H11.637l-5.7-5.063H2.195L4.7,112.786l-.9.15v2.127l.4.289a16.993,16.993,0,0,0,9.932,3.183h1.426l-4.631,4.631.647.427a3.851,3.851,0,0,1,.566.457l.185.181h3.7l8.069-5.7H32.92a15.937,15.937,0,0,0,6.312-1.3l.926-.4a1.624,1.624,0,0,0,.086-2.945Zm-25.422-5.489h2.7l5.379,3.8H18.62Zm-10.68,0H5.46l4.272,3.8H8.861a8.275,8.275,0,0,0-1.352.112l-1.516.253Zm35.517,7.27-.926.4a14.667,14.667,0,0,1-5.814,1.194H25.89l1.061-.749-.73-1.034-10.594,7.479h-2.7l6.514-6.514-.895-.895-1.713,1.713H14.138a15.735,15.735,0,0,1-9.071-2.858v-.4l2.649-.442a7.014,7.014,0,0,1,1.144-.094H33.079a14.832,14.832,0,0,1,6.6,1.558.358.358,0,0,1-.018.649Z" transform="translate(-1.903 -93.22)" />
               <path fill="#00a4f6" opacity="0.57" d="M11.392,226.793H3.8a3.79,3.79,0,0,1-.619-7.529,5.057,5.057,0,0,1,9.369,1.425,3.161,3.161,0,0,1-1.154,6.1Z" transform="translate(0 -188.187)" />
               <rect fill="#333" width="12.658" height="1.266" transform="translate(21.518 32.277)" />
               <rect fill="#333" width="1.266" height="1.266" transform="translate(18.987 32.277)" />
               <rect fill="#333" width="10.126" height="1.266" transform="translate(5.696 4.43)" />
               <rect fill="#333" width="1.266" height="1.266" transform="translate(3.164 4.43)" />
               <rect fill="#333" width="9.493" height="1.266" transform="translate(3.164 7.595)" />
               <rect fill="#333" width="1.266" height="1.266" transform="translate(0.633 7.595)" />
            </g>
         </g>
      </g>
   </g>
</svg>