<svg xmlns="http://www.w3.org/2000/svg" width="39.473" height="44.805" viewBox="0 0 39.473 44.805"><defs><style>.a{fill:none;}.b{fill:#f2e200;opacity:0.9;}.c{fill:#00a4f6;}.d{fill:#13191e;}</style></defs><g transform="translate(-162 -356)"><path class="a" d="M93.856,350.708l6.449-3.046a2.982,2.982,0,0,1,3.94,1.195l-13.108,8.479a9.006,9.006,0,0,1-5.624.637l-9.041-2.537a3.347,3.347,0,0,0-2.484.272L72.1,356.719l.254-9.221.075,0a8.845,8.845,0,0,1,9.192-.643l.541.28a6.313,6.313,0,0,0,2.733.705l5.314.147a3.953,3.953,0,0,1,3.648,2.718Zm0,0" transform="translate(96.492 41.908)"/><path class="b" d="M132.032,124.411a9.923,9.923,0,1,1-9.923-9.923A9.923,9.923,0,0,1,132.032,124.411Zm0,0" transform="translate(62.939 252.03)"/><path class="c" d="M14.215,346.27l-.028,1.038-5.827-.16.352-12.789,5.828.16-.07,2.53Zm0,0" transform="translate(154.375 52.357)"/><g transform="translate(162 356)"><path class="d" d="M189.234,157.948a.708.708,0,0,0-.25-.009,1.659,1.659,0,0,1-1.479-1.656.735.735,0,1,0-1.47,0,3.125,3.125,0,0,0,2.311,3.028v.734a.735.735,0,1,0,1.47,0v-.69a3.139,3.139,0,0,0-.643-6.211,1.668,1.668,0,1,1,1.668-1.668.735.735,0,1,0,1.47,0,3.143,3.143,0,0,0-2.5-3.071v-.669a.735.735,0,1,0-1.47,0v.714a3.138,3.138,0,0,0,.827,6.165,1.668,1.668,0,0,1,.061,3.335Zm0,0" transform="translate(-168.977 -133.496)"/><path class="d" d="M104.188,117.146a10.658,10.658,0,1,0,10.658-10.658A10.658,10.658,0,0,0,104.188,117.146Zm10.658-9.188a9.188,9.188,0,1,1-9.188,9.188A9.188,9.188,0,0,1,114.846,107.958Zm0,0" transform="translate(-94.65 -96.705)"/><path class="d" d="M34.836,329.285,29.081,332a4.7,4.7,0,0,0-4-2.465l-5.315-.147a5.616,5.616,0,0,1-2.415-.624l-.541-.28a9.537,9.537,0,0,0-8.835.009l.034-1.225a.735.735,0,0,0-.714-.755l-5.828-.16a.734.734,0,0,0-.755.714L.361,339.86a.735.735,0,0,0,.714.755l5.827.16h.02a.735.735,0,0,0,.734-.715l.017-.611,1.515-.811a2.6,2.6,0,0,1,1.938-.212l9.041,2.537.047.012a9.686,9.686,0,0,0,1.988.205,9.8,9.8,0,0,0,4.095-.894.776.776,0,0,0,.091-.05L39.5,331.757a.735.735,0,0,0,.241-.979,3.713,3.713,0,0,0-4.9-1.494Zm-28.611,9.7-.013.3-4.36-.119.31-11.319,4.363.12Zm19.411-.008a8.326,8.326,0,0,1-5.1.568l-9.016-2.531a4.065,4.065,0,0,0-3.029.332l-.774.414.208-7.527a8.077,8.077,0,0,1,8.207-.437l.541.28a7.086,7.086,0,0,0,3.051.788l5.315.147a3.224,3.224,0,0,1,2.97,2.214,3.258,3.258,0,0,1,.094.354l-7.917-.219a.735.735,0,1,0-.041,1.469l8.735.24h.02a.735.735,0,0,0,.735-.715,4.718,4.718,0,0,0-.071-.953l5.9-2.79.017-.008a2.245,2.245,0,0,1,2.539.356Zm0,0" transform="translate(-0.361 -296.376)"/><path class="d" d="M213.669,7.717V.735a.735.735,0,0,0-1.47,0V7.717a.735.735,0,0,0,1.47,0Zm0,0" transform="translate(-192.738)"/><path class="d" d="M273.669,44.042V40.735a.735.735,0,0,0-1.47,0v3.307a.735.735,0,0,0,1.47,0Zm0,0" transform="translate(-247.226 -36.325)"/><path class="d" d="M153.669,44.042V40.735a.735.735,0,0,0-1.47,0v3.307a.735.735,0,1,0,1.47,0Zm0,0" transform="translate(-138.25 -36.325)"/></g></g></svg>