<svg xmlns="http://www.w3.org/2000/svg" width="37.323" height="37.323" viewBox="0 0 37.323 37.323"><defs><style>.a{fill:none;}.b{fill:#f2e200;opacity:0.61;}.c{fill:#5eb3d1;}.d{fill:#00a4f6;}.e{fill:#6b962a;}.f{fill:#fdb62f;}.g{fill:#fd7b2f;}.h{fill:#f2a46f;}.i,.j{fill:#fff;}.i{stroke:#100f0f;}.j{stroke:#fff;}</style></defs><g transform="translate(-253.192 -376.192)"><path class="a" d="M463.6,77.479l-6.337-6.349V96.573h8.481V82.634A7.27,7.27,0,0,0,463.6,77.479Z" transform="translate(-175.83 310.279)"/><path class="a" d="M15.111,34.609,10.32,22.172a2.423,2.423,0,0,1,1.39-3.132l22.612-8.71a2.423,2.423,0,0,1,3.132,1.39l4.79,12.437a2.423,2.423,0,0,1-1.39,3.132L18.243,36A2.424,2.424,0,0,1,15.111,34.609Z" transform="translate(244.616 367.607)"/><path class="a" d="M69.322,111.368,42.21,121.877l1.805,4.686,27.114-10.5Z" transform="translate(214.474 272.44)"/><path class="b" d="M10.161,25.911V12.584a2.423,2.423,0,0,1,2.423-2.423H36.815a2.423,2.423,0,0,1,2.423,2.423V25.911a2.423,2.423,0,0,1-2.423,2.423H12.584A2.423,2.423,0,0,1,10.161,25.911Z" transform="translate(243.031 366.031)"/><path class="a" d="M129.982,10.161h-2.575L109.234,28.334h20.748a2.423,2.423,0,0,0,2.423-2.423V12.584A2.423,2.423,0,0,0,129.982,10.161Z" transform="translate(151.446 367.613)"/><rect class="c" width="2.423" height="1.212" transform="translate(257.197 387.467)"/><rect class="c" width="2.423" height="1.212" transform="translate(257.197 391.101)"/><rect class="c" width="2.423" height="1.212" transform="translate(268.101 391.101)"/><rect class="c" width="2.423" height="1.212" transform="translate(260.832 387.467)"/><rect class="c" width="2.423" height="1.212" transform="translate(264.466 387.467)"/><rect class="c" width="2.423" height="1.212" transform="translate(268.101 387.467)"/><rect class="c" width="1.212" height="1.817" transform="translate(279.611 380.197)"/><rect class="c" width="1.212" height="1.817" transform="translate(277.188 380.197)"/><rect class="c" width="1.212" height="1.817" transform="translate(274.765 380.197)"/><rect class="c" width="1.212" height="1.817" transform="translate(272.341 380.197)"/><rect class="d" width="10.904" height="6.058" transform="translate(279.005 406.852)"/><path class="a" d="M316.125,181.644a2.626,2.626,0,0,0-3.792,3.632l4.964,5.416a8.17,8.17,0,0,0,.165,8.382l.44.7h7.875V191.3Z" transform="translate(-38.898 207.073)"/><rect class="e" width="1.212" height="1.212" transform="translate(280.822 408.669)"/><path class="f" d="M50.806,54.684V51.776a.969.969,0,0,1,.969-.969h2.908a.969.969,0,0,1,.969.969v2.908a.969.969,0,0,1-.969.969H51.775A.969.969,0,0,1,50.806,54.684Z" transform="translate(206.391 329.39)"/><rect class="g" width="1.817" height="1.212" transform="translate(257.197 382.015)"/><rect class="g" width="1.817" height="1.212" transform="translate(260.226 382.015)"/><path class="h" d="M490.886,298.432a.6.6,0,0,1-.428-.177l-2.423-2.423a.606.606,0,0,1,.857-.857l2.423,2.423a.606.606,0,0,1-.428,1.034Z" transform="translate(-204.612 99.939)"/><path d="M30.289,6.418V3.029A3.032,3.032,0,0,0,27.26,0H3.029A3.032,3.032,0,0,0,0,3.029V16.356a3.022,3.022,0,0,0,2.716,3l2.277,5.911A3.028,3.028,0,0,0,8.909,27l14.22-5.477a8.755,8.755,0,0,0,.755,7.775l.348.557v5.885a.606.606,0,0,0,.606.606h10.9a.606.606,0,0,0,.606-.606v-20a7.926,7.926,0,0,0-2.321-5.584Zm0,3.623,1.839,4.773a1.817,1.817,0,0,1-1.043,2.349l-1.051.406a3.021,3.021,0,0,0,.256-1.212V10.04ZM1.212,16.356V3.029A1.817,1.817,0,0,1,3.029,1.212H27.26a1.817,1.817,0,0,1,1.817,1.817v3.85h-.005l.005.014v9.463a1.824,1.824,0,0,1-.041.314l-5.549-5.55a3.232,3.232,0,0,0-4.665,4.469l2.366,2.584H3.029a1.817,1.817,0,0,1-1.817-1.817Zm7.761,3.029L4.665,21.044l-.637-1.659Zm-.5,6.487a1.817,1.817,0,0,1-2.349-1.043h0L5.1,22.172l7.231-2.787v0H22.3l.788.858Zm26.662,9.264H25.443V30.289h9.693Zm0-6.058H25.173l-.263-.42a7.555,7.555,0,0,1-.153-7.758.606.606,0,0,0-.079-.71l-4.964-5.416a2.02,2.02,0,0,1,2.917-2.794l9.653,9.651.857-.857L30.9,18.533l.622-.242a3.028,3.028,0,0,0,1.737-3.913L31.207,9.053l1.963,1.966a6.708,6.708,0,0,1,1.966,4.726V29.078Z" transform="translate(254.168 377.168)"/><path d="M45.129,46.7A1.575,1.575,0,0,0,46.7,45.129h0V42.221a1.575,1.575,0,0,0-1.575-1.575H42.221a1.575,1.575,0,0,0-1.575,1.575h0v2.908A1.575,1.575,0,0,0,42.221,46.7h2.908Zm-3.271-1.575v-.848h1.212V43.069H41.858v-.848a.364.364,0,0,1,.363-.363h2.908a.364.364,0,0,1,.363.363h0v.848H44.281v1.212h1.212v.848a.364.364,0,0,1-.363.363H42.221a.364.364,0,0,1-.363-.363Z" transform="translate(215.945 338.945)"/><rect width="2.423" height="1.212" transform="translate(257.197 387.467)"/><rect width="2.423" height="1.212" transform="translate(257.197 391.101)"/><rect width="2.423" height="1.212" transform="translate(268.101 391.101)"/><rect width="2.423" height="1.212" transform="translate(260.832 387.467)"/><rect width="2.423" height="1.212" transform="translate(264.466 387.467)"/><rect width="2.423" height="1.212" transform="translate(268.101 387.467)"/><rect width="1.212" height="1.817" transform="translate(279.611 380.197)"/><rect width="1.212" height="1.817" transform="translate(277.188 380.197)"/><rect width="1.212" height="1.817" transform="translate(274.765 380.197)"/><rect width="1.212" height="1.817" transform="translate(272.341 380.197)"/><rect width="1.212" height="1.212" transform="translate(280.822 408.669)"/><path class="i" d="M-1468.845,328.93l-4.259-4.259a2.622,2.622,0,0,1,.421-3.311,2.213,2.213,0,0,1,2.78.355c1.538,1.419,6.86,6.269,6.86,6.269l-.473,1.242h-3.844Z" transform="translate(1746.639 67.316)"/><path class="j" d="M-1463.362,337.262l-5.263-6.387h0l7.156,1.952,4.672,4.731Z" transform="translate(1744.059 62.118)"/></g></svg>