<svg xmlns="http://www.w3.org/2000/svg" width="111" height="38" viewBox="0 0 111 38"><defs><style>.a{fill:rgba(142,142,147,0.24);}.b{fill:#0093dd;stroke:rgba(0,0,0,0);fill-rule:evenodd;}</style></defs><g transform="translate(-23 -388)"><rect class="a" width="111" height="38" rx="10" transform="translate(23 388)"/><g transform="translate(33.889 400)"><path class="b" d="M13.744,12.575,9.911,8.74a5.426,5.426,0,0,0,1.05-3.232A5.532,5.532,0,0,0,5.461,0,5.436,5.436,0,0,0,0,5.469a5.532,5.532,0,0,0,5.5,5.508A5.409,5.409,0,0,0,8.742,9.915l0,0,3.83,3.832a.827.827,0,1,0,1.168-1.169ZM5.5,9.879A4.426,4.426,0,0,1,1.1,5.473,4.35,4.35,0,0,1,5.465,1.1,4.426,4.426,0,0,1,9.865,5.5,4.35,4.35,0,0,1,5.5,9.879Z" transform="translate(0 0)"/></g></g></svg>