<svg xmlns="http://www.w3.org/2000/svg" width="21.147" height="21.156" viewBox="0 0 21.147 21.156"><defs><style>.a{fill:#515455;}</style></defs><g transform="translate(-0.109 0)"><g transform="translate(0.109 -0.001)"><path class="a" d="M20.41,10.642c1.378-3.761,1.055-7.244-.873-9.14A5.371,5.371,0,0,0,13.344.6a.353.353,0,0,0,.317.63A4.728,4.728,0,0,1,19.043,2c1.713,1.684,1.983,4.841.74,8.3l-6.59-3.425a1.384,1.384,0,0,1-.748-1.234V1.771a1.762,1.762,0,1,0-3.524,0V5.648a1.384,1.384,0,0,1-.748,1.234L1.582,10.308C.339,6.846.61,3.689,2.323,2A4.735,4.735,0,0,1,7.7,1.23.353.353,0,1,0,8.022.6a5.45,5.45,0,0,0-6.194.9C-.1,3.4-.423,6.881.955,10.642a1.755,1.755,0,0,0-.846,1.5v1.611a.352.352,0,0,0,.473.331L2.3,13.462a18.724,18.724,0,0,0,3.3,3.849l-.03.018a.352.352,0,0,0-.112.5l.7,1.057a.352.352,0,0,0,.372.148l.844-.194c.806.648,1.682,1.295,2.61,1.925a.814.814,0,0,0,1.392,0c.929-.631,1.8-1.278,2.61-1.926l.846.194a.356.356,0,0,0,.372-.148l.7-1.057a.352.352,0,0,0-.112-.5l-.03-.018a18.723,18.723,0,0,0,3.3-3.849l1.715.623a.352.352,0,0,0,.471-.331V12.143A1.754,1.754,0,0,0,20.41,10.642ZM2.973,13.216h0l5.216-1.9a.547.547,0,0,1,.732.514v3.484L6.227,16.933A18.641,18.641,0,0,1,2.973,13.216Zm5.283,5.42,1-.229c.084.384.182.8.294,1.189Q8.877,19.119,8.255,18.636Zm3.564.96c.112-.394.209-.805.294-1.189l1,.229Q12.489,19.119,11.82,19.6Zm3.318-2.663-2.693-1.616V11.833a.546.546,0,0,1,.733-.514l5.216,1.9A18.641,18.641,0,0,1,15.138,16.933Zm5.413-3.682-7.132-2.594a1.252,1.252,0,0,0-1.679,1.176v3.683a.352.352,0,0,0,.171.3l3.207,1.925-.365.547-2.831-.651a.352.352,0,0,0-.423.271,13.911,13.911,0,0,1-.673,2.416.015.015,0,0,1,0,.007.143.143,0,0,1-.279,0v0a13.848,13.848,0,0,1-.677-2.419.352.352,0,0,0-.423-.271l-2.831.651-.365-.547L9.455,15.82a.352.352,0,0,0,.17-.3V11.833a1.252,1.252,0,0,0-1.679-1.176L.814,13.251V12.143a1.054,1.054,0,0,1,.569-.938L8.5,7.506A2.087,2.087,0,0,0,9.625,5.648V1.771a1.057,1.057,0,1,1,2.115,0V5.648a2.087,2.087,0,0,0,1.128,1.857l7.114,3.7a1.054,1.054,0,0,1,.57.937v1.108Z" transform="translate(-0.109 0.001)"/></g></g></svg>