<svg xmlns="http://www.w3.org/2000/svg" width="15.913" height="22.978" viewBox="0 0 15.913 22.978"><defs><style>.a{fill:#7a7c80;}</style></defs><g transform="translate(-75.329 0)"><path class="a" d="M165.184,93.665a3.927,3.927,0,1,0-3.927-3.927A3.931,3.931,0,0,0,165.184,93.665Zm0-6.876a2.949,2.949,0,1,1-2.949,2.949A2.952,2.952,0,0,1,165.184,86.789Z" transform="translate(-81.899 -81.787)"/><path class="a" d="M89.055,13.231V10.34L91.1,8.3a.489.489,0,0,0,0-.692L89.055,5.561V2.671a.489.489,0,0,0-.489-.489H85.675L83.631.137a.5.5,0,0,0-.692,0L80.9,2.182H78a.489.489,0,0,0-.489.489v2.89L75.472,7.605a.489.489,0,0,0,0,.692l2.044,2.044v2.891A.489.489,0,0,0,78,13.72h.153L76.85,21.712a.494.494,0,0,0,.757.484L79.7,20.78l1.53,2.009a.493.493,0,0,0,.872-.218L83.192,15.9a.492.492,0,0,0,.187,0l1.092,6.673a.493.493,0,0,0,.872.218l1.53-2.009L88.964,22.2a.489.489,0,0,0,.757-.484L88.413,13.72h.153A.489.489,0,0,0,89.055,13.231ZM76.509,7.951,78.35,6.109a.489.489,0,0,0,.143-.346V3.16h2.6a.489.489,0,0,0,.346-.143l1.841-1.842,1.841,1.842a.489.489,0,0,0,.346.143h2.6v2.6a.489.489,0,0,0,.143.346l1.841,1.842L88.22,9.792a.489.489,0,0,0-.143.346v2.6h-2.6a.489.489,0,0,0-.346.143l-1.841,1.841-1.841-1.841a.489.489,0,0,0-.346-.143h-2.6v-2.6a.489.489,0,0,0-.143-.346Zm4.809,13.342L80.2,19.819a.489.489,0,0,0-.663-.108L78,20.749l1.15-7.029H80.9l.056.056,1.372,1.372Zm7.254-.543-1.534-1.039a.489.489,0,0,0-.663.108l-1.122,1.474-1.005-6.144,1.373-1.374.054-.054h1.747Z" transform="translate(0)"/></g></svg>